<svg height="18" width="24" viewBox="0 0 24 18" fill="none" xmlns="http://www.w3.org/2000/svg">
<path d="M19.64 2.34C18.21 1.71 16.69 1.26 15.1 1 14.9 1.33 14.67 1.78 14.52 2.13 12.82 1.89 11.15 1.89 9.49 2.13 9.33 1.78 9.09 1.33 8.9 1 7.3 1.26 5.78 1.72 4.36 2.34 1.48 6.42.7 10.4 1.09 14.32 3 15.66 4.84 16.47 6.66 17 7.11 16.42 7.51 15.8 7.85 15.15 7.2 14.92 6.57 14.63 5.97 14.3 6.13 14.19 6.29 14.07 6.44 13.95 10.06 15.54 13.99 15.54 17.56 13.95 17.72 14.07 17.87 14.19 18.03 14.3 17.43 14.63 16.8 14.92 16.14 15.16 16.49 15.8 16.89 16.42 17.34 17 19.15 16.47 21 15.66 22.91 14.32 23.36 9.77 22.13 5.83 19.64 2.34ZM8.35 11.91C7.26 11.91 6.37 10.95 6.37 9.79 6.37 8.63 7.24 7.68 8.35 7.68 9.45 7.68 10.34 8.63 10.32 9.79 10.32 10.95 9.45 11.91 8.35 11.91ZM15.65 11.91C14.57 11.91 13.68 10.95 13.68 9.79 13.68 8.63 14.55 7.68 15.65 7.68 16.76 7.68 17.65 8.63 17.63 9.79 17.63 10.95 16.76 11.91 15.65 11.91Z" fill="black"/>
</svg>
